<svg xmlns="http://www.w3.org/2000/svg" viewBox="0 0 594.83 130.94"><defs><style>.cls-1{fill:#9327f7;}.cls-2{fill:#ffb200;}.cls-3{fill:#1a0f25;}</style></defs><g id="Layer_2" data-name="Layer 2"><g id="Layer_1-2" data-name="Layer 1"><path class="cls-1" d="M75.72,120.66a10.25,10.25,0,0,1-17.51,7.27L41.93,111.65h0a20.53,20.53,0,0,1,29,0l1.77,1.78A10,10,0,0,1,75.72,120.66Z"/><path class="cls-2" d="M38,19.33h0a20.57,20.57,0,0,1-29.08,0L7.19,17.56A10.29,10.29,0,0,1,16.2.14,10.62,10.62,0,0,1,21.9,3.2Z"/><path class="cls-1" d="M75.72,10.28a10.21,10.21,0,0,1-3,7.28L56.44,33.84l-2,1.95L40,50.35l-2,1.91L24.79,65.49,38,78.73,23.51,93.23,3,72.72A10.27,10.27,0,0,1,3,58.21L23.51,37.75l1.91-2L40,21.28l1.91-2L58,3.2A10.58,10.58,0,0,1,63.71.14a10.36,10.36,0,0,1,9,2.86A10.21,10.21,0,0,1,75.72,10.28Z"/><path class="cls-2" d="M76.91,72.72,56.39,93.23l-1.91,2L38,111.65,21.69,127.93a10.24,10.24,0,0,1-14.5,0,10.24,10.24,0,0,1,0-14.5L23.51,97.14l2-2L40,80.68l1.91-2L55.12,65.49,41.89,52.26,56.44,37.75,76.91,58.21A10.27,10.27,0,0,1,76.91,72.72Z"/><path class="cls-3" d="M140.3,50.55a17.3,17.3,0,0,1,6.46,6V32.84h0A12.21,12.21,0,0,1,159,45.05V97.4H146.76V89.28a19,19,0,0,1-6.5,6.46,17.55,17.55,0,0,1-9.12,2.36,20.86,20.86,0,0,1-11.3-3.19,22.77,22.77,0,0,1-8.11-8.85,27.09,27.09,0,0,1-3-12.91,26.82,26.82,0,0,1,3-12.87,22.54,22.54,0,0,1,8.11-8.77,21.08,21.08,0,0,1,11.3-3.14A18.93,18.93,0,0,1,140.3,50.55ZM127.78,60.67A12.7,12.7,0,0,0,123,65.51a15.11,15.11,0,0,0-1.84,7.64A15.6,15.6,0,0,0,123,80.87a12.45,12.45,0,0,0,4.75,4.92,12.25,12.25,0,0,0,6.15,1.66,12.41,12.41,0,0,0,6.24-1.66,12.54,12.54,0,0,0,4.75-4.88,15.21,15.21,0,0,0,1.84-7.68,15.26,15.26,0,0,0-1.84-7.68,12.46,12.46,0,0,0-11-6.54A12.35,12.35,0,0,0,127.78,60.67Z"/><path class="cls-3" d="M216.46,77.24H181.22a11.46,11.46,0,0,0,3.49,7.6,10.82,10.82,0,0,0,17.18-2.36h13.26A21.14,21.14,0,0,1,207,93.73,26.24,26.24,0,0,1,180.17,95a21.73,21.73,0,0,1-8.46-8.72,27.09,27.09,0,0,1-3.06-13.13,26.8,26.8,0,0,1,3.06-13.09,21.55,21.55,0,0,1,8.5-8.64,25.09,25.09,0,0,1,12.44-3.05,25.69,25.69,0,0,1,12.43,3,21.8,21.8,0,0,1,8.59,8.42,25.22,25.22,0,0,1,3.14,12.78A30.09,30.09,0,0,1,216.46,77.24Zm-12.39-7.93a10.52,10.52,0,0,0-3.53-7.68,11.77,11.77,0,0,0-8.07-2.88,10.69,10.69,0,0,0-7.55,2.88,12.18,12.18,0,0,0-3.7,7.68Z"/><path class="cls-3" d="M246.12,86.84l12.39-37.77H271.6L253.8,97.4H238.36l-17.8-48.33h13.09Z"/><path class="cls-3" d="M328.74,73.49,350.2,97.4H333.8L317.23,77.24V97.4H304.92V45.14a12.31,12.31,0,0,1,12.31-12.3h0v36.9l16.31-20.67H350.2Z"/><path class="cls-3" d="M402.9,49.07V97.4H390.59V90.07A15.35,15.35,0,0,1,384.44,96,18.81,18.81,0,0,1,375.5,98a19,19,0,0,1-9.55-2.4,16.79,16.79,0,0,1-6.67-7.07,23.67,23.67,0,0,1-2.45-11.12V49.07h12.22v26.6c0,3.79,1,6.69,2.88,8.73a10.23,10.23,0,0,0,7.85,3,10.39,10.39,0,0,0,7.89-3c1.95-2,2.92-4.94,2.92-8.73V49.07Z"/><path class="cls-3" d="M490.53,53.78q5.28,5.4,5.28,15.18V97.4H483.59V70.7q0-5.67-2.88-8.68a10.35,10.35,0,0,0-7.85-3A10.52,10.52,0,0,0,465,62Q462,65,462,70.7V97.4H449.83V70.7Q449.83,65,447,62a10.37,10.37,0,0,0-7.85-3,10.53,10.53,0,0,0-7.9,3c-1.94,2-2.92,4.9-2.92,8.68V97.4H416V49.07h12.3v7.24a15.35,15.35,0,0,1,6.15-5.89,18.65,18.65,0,0,1,8.86-2.05,19,19,0,0,1,9.81,2.53,17,17,0,0,1,6.68,7.24A18.74,18.74,0,0,1,466.71,51a19,19,0,0,1,9.9-2.62Q485.25,48.37,490.53,53.78Z"/><path class="cls-3" d="M536.64,50.55a17.34,17.34,0,0,1,6.45,6v-7.5h12.22V97.4H543.09V89.28a18.86,18.86,0,0,1-6.5,6.46,17.52,17.52,0,0,1-9.11,2.36,20.86,20.86,0,0,1-11.3-3.19,22.72,22.72,0,0,1-8.12-8.85,27.21,27.21,0,0,1-3-12.91,26.93,26.93,0,0,1,3-12.87,22.49,22.49,0,0,1,8.12-8.77,21.08,21.08,0,0,1,11.3-3.14A18.93,18.93,0,0,1,536.64,50.55ZM524.12,60.67a12.73,12.73,0,0,0-4.76,4.84,15.11,15.11,0,0,0-1.83,7.64,15.6,15.6,0,0,0,1.83,7.72,12.48,12.48,0,0,0,4.76,4.92,12.19,12.19,0,0,0,6.15,1.66,12.41,12.41,0,0,0,6.24-1.66,12.61,12.61,0,0,0,4.75-4.88,15.31,15.31,0,0,0,1.83-7.68,15.37,15.37,0,0,0-1.83-7.68,12.68,12.68,0,0,0-4.75-4.88A12.51,12.51,0,0,0,530.27,59,12.29,12.29,0,0,0,524.12,60.67Z"/><path class="cls-3" d="M586.58,50.81a14.38,14.38,0,0,1,8.25-2.44V60.93h-3.06q-5.49,0-8.29,2.75t-2.79,9.47V97.4h-12.3V49.07h12.3v8.55A18.16,18.16,0,0,1,586.58,50.81Z"/></g></g></svg>