<svg id="Layer_2" data-name="Layer 2" xmlns="http://www.w3.org/2000/svg" xmlns:xlink="http://www.w3.org/1999/xlink" viewBox="0 0 250 250">
  <defs>
    <style>
      .cls-1 {
        fill: #fff;
      }

      .cls-2 {
        fill: #99f;
      }

      .cls-3 {
        fill: #00005b;
      }

      .cls-4 {
        clip-path: url(#clippath);
      }

      .cls-5 {
        fill: none;
      }
    </style>
    <clipPath id="clippath">
      <rect class="cls-5" x="48.08" y="50" width="153.85" height="150"/>
    </clipPath>
  </defs>
  <g id="Layer_1-2" data-name="Layer 1">
    <g>
      <circle class="cls-1" cx="125" cy="125" r="125"/>
      <g class="cls-4">
        <g id="After_Effects" data-name="After Effects">
          <g id="Layer_2-2" data-name="Layer 2">
            <g id="Layer_1-3" data-name="Layer 1">
              <g id="Layer_2_2" data-name="Layer 2_2">
                <g id="Surfaces">
                  <g id="Video_Audio_Surface" data-name="Video Audio Surface">
                    <g id="Outline_no_shadow" data-name="Outline no shadow">
                      <path id="Vector" class="cls-3" d="m75.32,50h99.36c3.58,0,7.12.7,10.43,2.07,3.31,1.37,6.31,3.37,8.84,5.9,2.53,2.53,4.54,5.54,5.91,8.84,1.37,3.31,2.07,6.85,2.07,10.43v95.51c0,3.58-.7,7.12-2.07,10.43-1.37,3.31-3.37,6.31-5.91,8.84-2.53,2.53-5.54,4.54-8.84,5.91-3.31,1.37-6.85,2.07-10.43,2.07h-99.36c-3.58,0-7.12-.7-10.43-2.07-3.31-1.37-6.31-3.37-8.84-5.91-2.53-2.53-4.54-5.54-5.9-8.84-1.37-3.31-2.07-6.85-2.07-10.43v-95.51c0-3.58.7-7.12,2.07-10.43,1.37-3.31,3.37-6.31,5.9-8.84,2.53-2.53,5.54-4.54,8.84-5.9,3.31-1.37,6.85-2.07,10.43-2.07Z"/>
                    </g>
                  </g>
                </g>
                <g id="Outlined_Mnemonics_Logos" data-name="Outlined Mnemonics Logos">
                  <g id="Ae">
                    <path id="Vector_2" data-name="Vector 2" class="cls-2" d="m109.87,139.74h-23.85l-4.87,15.13c-.05.27-.21.52-.43.68-.23.17-.5.24-.78.21h-12.05c-.71,0-.9-.38-.71-1.15l20.64-59.17c.19-.64.38-1.22.64-1.99.26-1.37.39-2.77.38-4.17-.02-.16.02-.32.12-.45.1-.13.24-.22.39-.25h16.6c.45,0,.77.19.83.51l23.4,65.71c.19.71,0,1.03-.64,1.03h-13.4c-.23.02-.45-.04-.64-.17-.19-.13-.32-.32-.38-.54l-5.26-15.38Zm-20.13-12.76h16.28c-.38-1.35-.9-2.95-1.47-4.62s-1.15-3.59-1.73-5.51-1.22-3.91-1.86-5.9-1.22-3.85-1.73-5.71c-.51-1.86-.96-3.46-1.41-5h-.13c-.58,2.79-1.3,5.55-2.18,8.27-.96,3.08-1.92,6.28-2.95,9.49-.83,3.27-1.86,6.28-2.82,8.97Z"/>
                    <path id="Vector_3" data-name="Vector 3" class="cls-2" d="m168.21,133.85h-20.32c.24,2.02.92,3.97,1.99,5.71,1.13,1.73,2.77,3.07,4.68,3.85,2.59,1.11,5.39,1.65,8.21,1.6,2.24-.04,4.47-.28,6.67-.71,1.96-.26,3.87-.75,5.71-1.47.32-.26.51-.13.51.51v9.81c-.01.26-.05.52-.13.77-.12.18-.27.33-.45.45-2.05.9-4.2,1.55-6.41,1.92-3,.58-6.05.83-9.1.77-4.87,0-8.97-.77-12.31-2.24-3.14-1.36-5.91-3.45-8.08-6.09-2.03-2.47-3.53-5.33-4.42-8.4-1.88-6.4-1.79-13.21.26-19.55,1.02-3.21,2.65-6.19,4.81-8.78,2.12-2.56,4.76-4.64,7.76-6.09,3.01-1.47,6.6-1.99,10.71-1.99,3.42-.08,6.81.6,9.94,1.99,2.63,1.14,4.94,2.9,6.73,5.13,1.7,2.19,3.01,4.66,3.85,7.31.82,2.53,1.23,5.17,1.22,7.82,0,1.54-.06,2.88-.13,4.1-.06,1.22-.19,2.12-.26,2.69-.03.22-.13.43-.3.58-.16.15-.38.24-.6.25-.38,0-1.09.06-2.12.13-1.23.14-2.48.2-3.72.19-1.47,0-3.01-.26-4.68-.26Zm-20.32-9.36h13.53c1.67,0,2.88,0,3.65-.06.53-.04,1.03-.22,1.47-.51v-.64c0-.81-.13-1.61-.38-2.37-.56-1.75-1.68-3.28-3.18-4.34-1.5-1.06-3.31-1.61-5.15-1.56-1.74-.1-3.47.31-4.98,1.18s-2.74,2.15-3.54,3.7c-.75,1.44-1.23,3-1.41,4.62Z"/>
                  </g>
                </g>
              </g>
            </g>
          </g>
        </g>
      </g>
    </g>
  </g>
</svg>