<?xml version="1.0" encoding="UTF-8"?>
<svg id="Layer_2" data-name="Layer 2" xmlns="http://www.w3.org/2000/svg" xmlns:xlink="http://www.w3.org/1999/xlink" viewBox="0 0 250 250">
  <defs>
    <style>
      .cls-1 {
        fill: #fff;
      }

      .cls-2 {
        fill: url(#linear-gradient);
      }
    </style>
    <linearGradient id="linear-gradient" x1="51.01" y1="52.67" x2="207.67" y2="205.75" gradientUnits="userSpaceOnUse">
      <stop offset="0" stop-color="#8f13fe"/>
      <stop offset="1" stop-color="#6a10f3"/>
    </linearGradient>
  </defs>
  <g id="Layer_1-2" data-name="Layer 1">
    <g>
      <circle class="cls-1" cx="125" cy="125" r="125"/>
      <path class="cls-2" d="m140.24,106.73c0-7.4-5.22-11.49-14.4-11.49h-16.88v23.84h14.23c10.98-.03,17.05-4.45,17.05-12.36Zm61.45-4.29c-3.18-10.35-3.65-23.04-3.28-32.85.37-10.21-7.6-19.59-18.32-19.59h-110.11c-10.75,0-18.69,9.41-18.32,19.59.33,9.81-.1,22.51-3.28,32.85-3.22,10.38-8.61,16.95-17.48,17.78v9.54c8.84.84,14.27,7.4,17.48,17.78,3.18,10.35,3.65,23.04,3.28,32.85-.37,10.21,7.6,19.59,18.32,19.59h110.08c10.75,0,18.69-9.41,18.32-19.59-.33-9.81.1-22.51,3.28-32.85,3.21-10.38,8.61-16.95,17.45-17.78v-9.54c-8.81-.84-14.23-7.4-17.41-17.78Zm-72.61,62.46h-32.79v-79.81h32.62c14.5,0,24.01,7.84,24.01,19.89,0,8.47-6.4,16.04-14.57,17.35v.44c11.12,1.21,18.59,8.91,18.59,19.52,0,14.1-10.48,22.61-27.86,22.61Zm-3.35-36.4h-16.78v26.26h17.52c11.45,0,17.52-4.59,17.52-13.23,0-8.61-6.23-13.03-18.25-13.03Z"/>
    </g>
  </g>
</svg>