<?xml version="1.0" encoding="UTF-8"?>
<svg id="Layer_2" data-name="Layer 2" xmlns="http://www.w3.org/2000/svg" viewBox="0 0 250 250">
  <defs>
    <style>
      .cls-1 {
        fill: #264de4;
      }

      .cls-2 {
        fill: #fff;
      }

      .cls-3 {
        fill: #2965f1;
      }
    </style>
  </defs>
  <g id="Layer_1-2" data-name="Layer 1">
    <g>
      <circle class="cls-2" cx="125" cy="125" r="125"/>
      <g>
        <path class="cls-3" d="m124.99,50v26.78h40.55l-1.61,15.83-38.6,16.51-.09.03h37.32l-4.28,49.09-32.89,9.61-.4-.12v32.27l52.61-17.49,11.68-132.51h-64.29Zm18.55,95.46l1.24-20.62-19.79-.06v25.78l.25.06,18.3-5.16Zm-16-52.84h-2.55v1.07l.37-.15,2.18-.91Z"/>
        <polygon class="cls-1" points="124.99 76.78 84.45 76.78 86.39 92.62 124.99 92.62 124.99 93.68 87.83 109.16 89.03 124.67 89.11 124.64 89.11 124.67 124.99 124.78 124.99 150.56 107.62 146.15 106.55 133.33 90.18 133.33 92.32 158.08 124.99 167.73 124.99 200 72.4 182.51 60.72 50 124.99 50 124.99 76.78"/>
      </g>
    </g>
  </g>
</svg>