<?xml version="1.0" encoding="UTF-8"?>
<svg id="Layer_2" data-name="Layer 2" xmlns="http://www.w3.org/2000/svg" viewBox="0 0 250 250">
  <defs>
    <style>
      .cls-1 {
        fill: #ff7361;
      }

      .cls-2 {
        fill: #fff;
      }

      .cls-3 {
        fill: #b659ff;
      }

      .cls-4 {
        fill: #00cf7f;
      }

      .cls-5 {
        fill: #00bcff;
      }

      .cls-6 {
        fill: #ff4d12;
      }
    </style>
  </defs>
  <g id="Layer_1-2" data-name="Layer 1">
    <g>
      <circle class="cls-2" cx="125" cy="125" r="125"/>
      <g>
        <path class="cls-6" d="m97.28,100.06c-1.01-.46-2.13-.38-3.17-.67-6.31-1.73-11.52-5-15.1-10.65-2.29-3.62-3.65-7.48-4.05-11.79-.52-5.53.79-10.57,3.69-15.15,3.91-6.16,9.45-10.08,16.78-11.26.41-.07.94-.12,1.25-.55h28.4c.36.63.27,1.32.27,2,0,15.98,0,31.95,0,47.93-.29.03-.58.08-.87.08-9.07.02-18.14.04-27.21.05Z"/>
        <path class="cls-1" d="m125.35,99.92c0-15.98,0-31.95,0-47.93,0-.68.09-1.37-.27-2h27.52c2.83.86,5.81,1.22,8.47,2.65,7.52,4.04,12.22,10.21,13.44,18.66,1.23,8.52-1.34,15.97-7.62,21.94-3.99,3.79-8.8,6-14.32,6.57-.18.02-.34.14-.51.21-1.95.04-3.9-.06-5.83.29-.18-.3-.48-.29-.77-.29-6.7.02-13.4.04-20.1.06-.03-.05-.03-.1,0-.15Z"/>
        <path class="cls-3" d="m97.28,100.06c9.07-.02,18.14-.03,27.21-.05.29,0,.58-.05.87-.08-.03.05-.03.1,0,.15,0,6.95,0,13.9,0,20.85.02,3.18-.15,6.36.26,9.52-.51.42-.3,1-.3,1.5-.02,5.41,0,10.83-.02,16.24,0,.58-.07,1.16-.11,1.74-4.78,0-9.56-.02-14.34-.01-4.43,0-8.86-.07-13.29.17-3.28-.73-6.5-1.62-9.46-3.3-4.44-2.52-7.81-6.03-10.15-10.57-5.68-10.98-2.23-24.17,7.5-31.38,3.32-2.46,7.01-4.07,11.17-4.51.23-.02.44-.19.66-.29Z"/>
        <path class="cls-4" d="m97.57,150.09c4.43-.24,8.86-.16,13.29-.17,4.78,0,9.56,0,14.34.01.03.53.08,1.07.08,1.6,0,8.5.28,17.01-.15,25.49-.25,5.02-2.24,9.7-5.59,13.7-3.43,4.1-7.67,6.89-12.75,8.32-5.1,1.43-10.19,1.26-15.25-.57-3.21-1.16-5.95-2.95-8.4-5.23-3.97-3.7-6.58-8.25-7.5-13.59-1.35-7.77.4-14.78,5.56-20.92,3.58-4.26,8.1-6.81,13.4-8.14.97-.24,1.97-.34,2.96-.5Z"/>
        <path class="cls-5" d="m125.62,130.45c-.4-3.17-.23-6.35-.26-9.52.61-.4.29-1.07.44-1.6,2.99-10.45,9.65-16.94,20.42-19.01,1.93-.35,3.88-.25,5.83-.29,3.71.53,7.33,1.36,10.59,3.3,6.43,3.81,10.43,9.33,11.94,16.7,1.48,7.21,0,13.8-4.24,19.64-3.37,4.64-7.91,7.85-13.57,9.38-2.33.63-4.68,1.15-7.07,1.07-5.81-.19-10.92-2.26-15.5-5.89-2.32-1.85-3.96-4.19-5.55-6.57-1.45-2.17-2.24-4.71-3.05-7.2Z"/>
      </g>
    </g>
  </g>
</svg>