<?xml version="1.0" encoding="UTF-8"?>
<svg id="Layer_2" data-name="Layer 2" xmlns="http://www.w3.org/2000/svg" viewBox="0 0 250 250">
  <defs>
    <style>
      .cls-1 {
        fill: #fff;
      }

      .cls-2 {
        fill: #f16529;
      }

      .cls-3 {
        fill: #e44d26;
      }
    </style>
  </defs>
  <g id="Layer_1-2" data-name="Layer 1">
    <g>
      <circle class="cls-1" cx="125" cy="125" r="125"/>
      <g>
        <path class="cls-2" d="m125,125.61v25.63l17.81-4.8,2.01-20.82h-19.82Zm0-75.61v26.86h40.38l-1.47,15.96h-38.91v16.54h37.53l-4.56,49.69-32.78,9.04v.11h-.2v31.74l52.59-17.42,11.69-132.51h-64.29Zm19.82,75.61h-19.82v25.63l17.81-4.8,2.01-20.82Z"/>
        <polygon class="cls-3" points="125 92.82 125 109.36 103.75 109.36 102.37 92.82 125 92.82"/>
        <polygon class="cls-3" points="125 76.86 84.65 76.86 88.95 125.61 125 125.61 125 151.24 124.83 151.28 106.93 146.43 105.75 133.67 89.78 133.67 91.79 159.05 124.83 168.2 125 168.2 125 199.94 124.83 200 72.41 182.51 60.71 50 125 50 125 76.86"/>
      </g>
    </g>
  </g>
</svg>