<?xml version="1.0" encoding="UTF-8"?>
<svg id="Layer_2" data-name="Layer 2" xmlns="http://www.w3.org/2000/svg" xmlns:xlink="http://www.w3.org/1999/xlink" viewBox="0 0 250 250">
  <defs>
    <style>
      .cls-1 {
        fill: #fff;
      }

      .cls-2 {
        fill: #ff9a00;
      }

      .cls-3 {
        clip-path: url(#clippath);
      }

      .cls-4 {
        fill: none;
      }

      .cls-5 {
        fill: #300;
      }
    </style>
    <clipPath id="clippath">
      <rect class="cls-4" x="48.08" y="50" width="153.85" height="150"/>
    </clipPath>
  </defs>
  <g id="Layer_1-2" data-name="Layer 1">
    <g>
      <circle class="cls-1" cx="125" cy="125" r="125"/>
      <g class="cls-3">
        <g id="Illustrator">
          <g id="Layer_2-2" data-name="Layer 2">
            <g id="Layer_1-3" data-name="Layer 1">
              <g id="Layer_2_2" data-name="Layer 2_2">
                <g id="Surfaces">
                  <g id="Drawing_Surface" data-name="Drawing Surface">
                    <g id="Outline_no_shadow" data-name="Outline no shadow">
                      <path id="Vector" class="cls-5" d="m75.32,50h99.36c3.58,0,7.12.7,10.43,2.07,3.31,1.37,6.31,3.37,8.84,5.9,2.53,2.53,4.54,5.54,5.91,8.84,1.37,3.31,2.07,6.85,2.07,10.43v95.51c0,3.58-.7,7.12-2.07,10.43-1.37,3.31-3.37,6.31-5.91,8.84-2.53,2.53-5.54,4.54-8.84,5.91-3.31,1.37-6.85,2.07-10.43,2.07h-99.36c-3.58,0-7.12-.7-10.43-2.07-3.31-1.37-6.31-3.37-8.84-5.91-2.53-2.53-4.54-5.54-5.91-8.84-1.37-3.31-2.07-6.85-2.07-10.43v-95.51c0-3.58.7-7.12,2.07-10.43,1.37-3.31,3.37-6.31,5.91-8.84,2.53-2.53,5.54-4.54,8.84-5.9,3.31-1.37,6.85-2.07,10.43-2.07h0Z"/>
                    </g>
                  </g>
                </g>
                <g id="Outlined_Mnemonics_Logos" data-name="Outlined Mnemonics Logos">
                  <g id="Ai">
                    <path id="Vector_2" data-name="Vector 2" class="cls-2" d="m122.63,140h-23.85l-4.87,15.06c-.05.27-.21.52-.43.69-.23.17-.5.24-.78.21h-12.05c-.71,0-.9-.38-.71-1.15l20.64-59.42c.19-.64.38-1.35.64-2.12.26-1.37.39-2.77.38-4.17-.02-.16.02-.32.12-.45.1-.13.24-.22.39-.25h16.6c.51,0,.77.19.83.51l23.4,66.03c.19.71,0,1.03-.64,1.03h-13.4c-.23.02-.45-.04-.64-.17-.19-.13-.32-.32-.38-.54l-5.26-15.26Zm-20.13-13.01h16.28c-.38-1.35-.9-2.95-1.47-4.62s-1.15-3.59-1.73-5.51c-.58-1.92-1.22-3.91-1.86-5.9s-1.22-3.85-1.73-5.71c-.51-1.86-.96-3.46-1.41-5h-.13c-.58,2.79-1.3,5.55-2.18,8.27-.96,3.08-1.92,6.28-2.95,9.49-.9,3.27-1.86,6.28-2.82,8.97h0Z"/>
                    <path id="Vector_3" data-name="Vector 3" class="cls-2" d="m156.92,99.36c-1.05.02-2.1-.16-3.08-.55-.98-.39-1.87-.96-2.63-1.69-1.47-1.61-2.25-3.72-2.18-5.9-.04-1.06.15-2.12.55-3.1.4-.98,1-1.87,1.76-2.61,1.54-1.46,3.59-2.26,5.71-2.24,2.5,0,4.42.77,5.83,2.24,1.42,1.55,2.18,3.6,2.12,5.71.04,1.08-.14,2.16-.52,3.18-.39,1.01-.97,1.94-1.72,2.72-.76.77-1.67,1.37-2.67,1.75-1.01.39-2.08.55-3.16.49h0Zm-7.18,55.64v-49.36c0-.64.26-.9.83-.9h12.69c.58,0,.83.32.83.9v49.36c0,.71-.26,1.03-.83,1.03h-12.56c-.13.01-.27,0-.4-.06-.13-.05-.24-.13-.33-.22-.09-.1-.16-.22-.2-.35-.04-.13-.05-.27-.03-.4h0Z"/>
                  </g>
                </g>
              </g>
            </g>
          </g>
        </g>
      </g>
    </g>
  </g>
</svg>