<?xml version="1.0" encoding="UTF-8"?>
<svg id="Layer_2" data-name="Layer 2" xmlns="http://www.w3.org/2000/svg" xmlns:xlink="http://www.w3.org/1999/xlink" viewBox="0 0 250 250">
  <defs>
    <style>
      .cls-1 {
        fill: #fff;
      }

      .cls-2 {
        fill: #49021f;
      }

      .cls-3 {
        clip-path: url(#clippath);
      }

      .cls-4 {
        fill: none;
      }

      .cls-5 {
        fill: #f36;
      }
    </style>
    <clipPath id="clippath">
      <rect class="cls-4" x="48.08" y="50" width="153.85" height="150"/>
    </clipPath>
  </defs>
  <g id="Layer_1-2" data-name="Layer 1">
    <g>
      <circle class="cls-1" cx="125" cy="125" r="125"/>
      <g class="cls-3">
        <g id="InDesign">
          <g id="Layer_2-2" data-name="Layer 2">
            <g id="Layer_1-3" data-name="Layer 1">
              <g id="Surfaces">
                <g id="Publishing_Surface" data-name="Publishing Surface">
                  <g id="Outline_no_shadow" data-name="Outline no shadow">
                    <path id="Vector" class="cls-2" d="m75.32,50h99.36c3.58,0,7.12.7,10.43,2.07,3.31,1.37,6.31,3.37,8.84,5.9,2.53,2.53,4.54,5.54,5.91,8.84,1.37,3.31,2.07,6.85,2.07,10.43v95.51c0,3.58-.7,7.12-2.07,10.43-1.37,3.31-3.37,6.31-5.91,8.84-2.53,2.53-5.54,4.54-8.84,5.91-3.31,1.37-6.85,2.07-10.43,2.07h-99.36c-3.58,0-7.12-.7-10.43-2.07-3.31-1.37-6.31-3.37-8.84-5.91-2.53-2.53-4.54-5.54-5.91-8.84-1.37-3.31-2.07-6.85-2.07-10.43v-95.51c0-3.58.7-7.12,2.07-10.43,1.37-3.31,3.37-6.31,5.91-8.84,2.53-2.53,5.54-4.54,8.84-5.9,3.31-1.37,6.85-2.07,10.43-2.07h0Z"/>
                  </g>
                </g>
              </g>
              <g id="Outlined_Mnemonics_Logos" data-name="Outlined Mnemonics Logos">
                <g id="Id">
                  <path id="Vector_2" data-name="Vector 2" class="cls-5" d="m103.97,89.23v65.77c0,.71-.32,1.03-.9,1.03h-12.56c-.58,0-.83-.32-.83-1.03v-65.77c0-.58.32-.83.9-.83h12.5c.1-.02.2-.01.29.01.1.02.18.07.26.13.08.06.14.14.19.22s.08.18.09.28c.02.03.04.06.05.09.01.03.01.07.01.1h0Z"/>
                  <path id="Vector_3" data-name="Vector 3" class="cls-5" d="m140.9,157.05c-4.75.08-9.46-.91-13.78-2.88-4.02-1.88-7.39-4.92-9.68-8.72-2.37-3.91-3.53-8.78-3.53-14.62-.06-4.74,1.15-9.42,3.53-13.53,2.43-4.18,5.96-7.61,10.19-9.94,4.49-2.5,9.87-3.72,16.22-3.72.45,0,.9.02,1.35.06.58.06,1.22.06,1.99.13v-20.26c0-.45.19-.71.64-.71h13.01c.14-.02.29.02.41.1.12.08.2.21.23.35v61.15c0,1.15.06,2.44.13,3.85.06,1.41.19,2.63.26,3.72.01.22-.04.43-.16.62s-.28.33-.49.41c-3.36,1.41-6.86,2.44-10.45,3.08-3.26.59-6.56.89-9.87.9Zm6.28-12.82v-28.21c-.57-.14-1.15-.24-1.73-.32-.71-.06-1.41-.13-2.12-.13-2.51-.03-5,.54-7.24,1.67-2.19,1.09-4.07,2.72-5.45,4.74-1.41,2.05-2.12,4.81-2.12,8.14-.06,2.25.31,4.49,1.09,6.6.62,1.71,1.6,3.26,2.88,4.55,1.24,1.18,2.73,2.06,4.36,2.56,1.72.56,3.51.84,5.32.83.96,0,1.86-.06,2.69-.13.78.06,1.57-.05,2.31-.32h0Z"/>
                </g>
              </g>
            </g>
          </g>
        </g>
      </g>
    </g>
  </g>
</svg>