<?xml version="1.0" encoding="UTF-8"?>
<svg id="Layer_2" data-name="Layer 2" xmlns="http://www.w3.org/2000/svg" viewBox="0 0 250 250">
  <defs>
    <style>
      .cls-1 {
        fill: #fff;
      }

      .cls-2 {
        fill: #f0db4f;
      }

      .cls-3 {
        fill: #323330;
      }
    </style>
  </defs>
  <g id="Layer_1-2" data-name="Layer 1">
    <g>
      <circle class="cls-1" cx="125" cy="125" r="125"/>
      <g>
        <rect class="cls-3" x="50" y="50" width="150" height="150" rx="41.66" ry="41.66"/>
        <path class="cls-2" d="m50,72.27v105.46c0,12.3,9.97,22.27,22.27,22.27h105.46c12.3,0,22.27-9.97,22.27-22.27v-105.46c0-12.3-9.97-22.27-22.27-22.27h-105.46c-12.3,0-22.27,9.97-22.27,22.27Zm81.63,94.72c0,14.6-8.57,21.26-21.06,21.26-11.28,0-17.81-5.83-21.16-12.89l11.48-6.93c2.21,3.92,4.22,7.23,9.07,7.23s7.57-1.81,7.57-8.87v-47.91h14.1v48.11h0Zm33.35,21.26c-13.09,0-21.56-6.23-25.68-14.4l11.48-6.63c3.01,4.92,6.96,8.57,13.9,8.57,5.83,0,9.58-2.91,9.58-6.96,0-4.82-3.82-6.53-10.28-9.37l-3.52-1.51c-10.18-4.32-16.91-9.78-16.91-21.26,0-10.58,8.07-18.62,20.63-18.62,8.97,0,15.4,3.11,20.02,11.28l-10.98,7.03c-2.41-4.32-5.02-6.03-9.07-6.03s-6.73,2.61-6.73,6.03c0,4.22,2.61,5.93,8.67,8.57l3.52,1.51c11.99,5.12,18.72,10.38,18.72,22.17,0,12.66-9.98,19.62-23.34,19.62h0Z"/>
      </g>
    </g>
  </g>
</svg>