<svg id="Layer_2" data-name="Layer 2" xmlns="http://www.w3.org/2000/svg" xmlns:xlink="http://www.w3.org/1999/xlink" viewBox="0 0 250 250">
  <defs>
    <style>
      .cls-1 {
        fill: #fff;
      }

      .cls-2 {
        clip-path: url(#clippath);
      }

      .cls-3 {
        fill: #001e36;
      }

      .cls-4 {
        fill: none;
      }

      .cls-5 {
        fill: #31a8ff;
      }
    </style>
    <clipPath id="clippath">
      <rect class="cls-4" x="48.08" y="50" width="153.85" height="150"/>
    </clipPath>
  </defs>
  <g id="Layer_1-2" data-name="Layer 1">
    <g>
      <circle class="cls-1" cx="125" cy="125" r="125"/>
      <g class="cls-2">
        <g id="Photoshop">
          <g id="Layer_2-2" data-name="Layer 2">
            <g id="Layer_1-3" data-name="Layer 1">
              <g id="Layer_2_2" data-name="Layer 2_2">
                <g id="Surfaces">
                  <g id="Photo_Surface" data-name="Photo Surface">
                    <g id="Outline_no_shadow" data-name="Outline no shadow">
                      <path id="Vector" class="cls-3" d="m75.32,50h99.36c3.58,0,7.12.7,10.43,2.07,3.31,1.37,6.31,3.37,8.84,5.91,2.53,2.53,4.54,5.54,5.91,8.84,1.37,3.31,2.07,6.85,2.07,10.43v95.51c0,3.58-.7,7.12-2.07,10.43-1.37,3.31-3.37,6.31-5.91,8.84-2.53,2.53-5.54,4.54-8.84,5.91-3.31,1.37-6.85,2.07-10.43,2.07h-99.36c-3.58,0-7.12-.7-10.43-2.07-3.31-1.37-6.31-3.37-8.84-5.91-2.53-2.53-4.54-5.54-5.91-8.84-1.37-3.31-2.07-6.85-2.07-10.43v-95.51c0-3.58.7-7.12,2.07-10.43,1.37-3.31,3.37-6.31,5.91-8.84,2.53-2.53,5.54-4.54,8.84-5.91,3.31-1.37,6.85-2.07,10.43-2.07h0Z"/>
                    </g>
                  </g>
                </g>
                <g id="Outlined_Mnemonics_Logos" data-name="Outlined Mnemonics Logos">
                  <g id="Ps">
                    <path id="Vector_2" data-name="Vector 2" class="cls-5" d="m82.69,155.19v-65.96c0-.45.19-.71.64-.71,1.09,0,2.12,0,3.59-.06,1.47-.06,3.14-.06,4.87-.13,1.73-.06,3.59-.06,5.58-.13,1.99-.06,3.91-.06,5.83-.06,5.26,0,9.62.64,13.21,1.99,3.22,1.09,6.15,2.89,8.59,5.26,2.07,2.07,3.66,4.56,4.68,7.31.97,2.67,1.47,5.49,1.47,8.33,0,5.51-1.28,10.06-3.85,13.65-2.58,3.58-6.17,6.31-10.32,7.82-4.36,1.6-9.17,2.18-14.42,2.18-1.54,0-2.56,0-3.21-.06s-1.54-.06-2.76-.06v20.58c.01.11,0,.21-.02.32-.03.1-.08.2-.14.28-.07.08-.15.15-.24.2-.09.05-.2.08-.3.09h-12.44c-.51,0-.77-.26-.77-.83Zm13.97-54.29v21.54c.9.06,1.73.13,2.5.13h3.4c2.5,0,4.99-.39,7.37-1.15,2.04-.6,3.87-1.78,5.26-3.4,1.35-1.6,1.99-3.78,1.99-6.6.06-2-.45-3.98-1.47-5.71-1.07-1.66-2.64-2.94-4.49-3.65-2.41-.94-4.98-1.38-7.56-1.28-1.67,0-3.14,0-4.36.06-.88-.06-1.76-.04-2.63.06h0Z"/>
                    <path id="Vector_3" data-name="Vector 3" class="cls-5" d="m171.15,118.53c-1.94-1.02-4.01-1.75-6.15-2.18-2.36-.53-4.76-.81-7.18-.83-1.3-.04-2.59.11-3.85.45-.8.17-1.51.62-1.99,1.28-.32.52-.5,1.12-.51,1.73.03.61.25,1.19.64,1.67.61.71,1.35,1.3,2.18,1.73,1.47.77,3.01,1.47,4.55,2.12,3.46,1.17,6.78,2.74,9.87,4.68,2.11,1.32,3.85,3.15,5.06,5.32,1.03,2.04,1.54,4.31,1.47,6.6.05,3.03-.82,6-2.5,8.53-1.79,2.56-4.28,4.54-7.18,5.71-3.14,1.35-6.99,2.05-11.6,2.05-2.93.01-5.85-.27-8.72-.83-2.26-.39-4.46-1.08-6.54-2.05-.22-.11-.41-.29-.53-.5-.12-.22-.18-.46-.17-.71v-11.15c0-.11.01-.22.06-.32.04-.1.11-.19.2-.26.09-.05.19-.08.3-.06.1.01.2.06.28.13,2.47,1.46,5.15,2.52,7.95,3.14,2.47.64,5.01.97,7.56.96,2.44,0,4.17-.32,5.32-.9.51-.24.95-.62,1.26-1.09.31-.48.47-1.03.47-1.6,0-.9-.51-1.73-1.54-2.56-1.03-.83-3.14-1.79-6.28-3.01-3.22-1.14-6.28-2.69-9.1-4.62-2.01-1.43-3.67-3.29-4.87-5.45-1.02-2.02-1.53-4.27-1.47-6.54,0-2.74.76-5.42,2.18-7.76,1.63-2.57,3.97-4.62,6.73-5.9,3.01-1.54,6.79-2.24,11.35-2.24,2.66,0,5.32.19,7.95.58,1.89.26,3.74.75,5.51,1.47.28.1.51.31.64.58.07.25.12.51.13.77v10.45c0,.12-.03.25-.08.36-.06.11-.14.21-.24.28-.37.13-.78.13-1.15,0Z"/>
                  </g>
                </g>
              </g>
            </g>
          </g>
        </g>
      </g>
    </g>
  </g>
</svg>