<?xml version="1.0" encoding="UTF-8"?>
<svg id="Layer_2" data-name="Layer 2" xmlns="http://www.w3.org/2000/svg" xmlns:xlink="http://www.w3.org/1999/xlink" viewBox="0 0 250 250">
  <defs>
    <style>
      .cls-1 {
        fill: url(#linear-gradient-2);
      }

      .cls-2 {
        fill: #fff;
      }

      .cls-3 {
        fill: url(#linear-gradient);
      }
    </style>
    <linearGradient id="linear-gradient" x1="89.94" y1="144.13" x2="200" y2="144.13" gradientUnits="userSpaceOnUse">
      <stop offset="0" stop-color="#ffe873"/>
      <stop offset="1" stop-color="#ffd43b"/>
    </linearGradient>
    <linearGradient id="linear-gradient-2" x1="50" y1="105.46" x2="159.82" y2="105.46" gradientUnits="userSpaceOnUse">
      <stop offset="0" stop-color="#4888ba"/>
      <stop offset="1" stop-color="#306998"/>
    </linearGradient>
  </defs>
  <g id="Layer_1-2" data-name="Layer 1">
    <g>
      <circle class="cls-2" cx="125" cy="125" r="125"/>
      <g>
        <path class="cls-3" d="m197.25,106.42c-2.58-10.35-7.47-18.15-17.88-18.15h-13.43v15.87c0,12.32-10.45,22.7-22.37,22.7h-35.76c-9.78,0-17.88,8.37-17.88,18.18v34.08c0,9.71,8.44,15.4,17.88,18.18,11.32,3.31,22.2,3.92,35.76,0,9.01-2.61,17.88-7.87,17.88-18.18v-13.63h-35.72v-4.55h53.64c10.41,0,14.26-7.27,17.88-18.15,3.75-11.22,3.58-22,0-36.36Zm-51.43,68.13c3.72,0,6.73,3.05,6.73,6.8s-3.01,6.83-6.73,6.83-6.73-3.08-6.73-6.83c.03-3.78,3.05-6.8,6.73-6.8Z"/>
        <path class="cls-1" d="m141.94,51.44c-11.99-1.98-25.01-1.87-35.76.03-15.13,2.68-17.88,8.27-17.88,18.62v13.63h35.79v4.55h-49.22c-10.41,0-19.52,6.26-22.37,18.15-3.28,13.63-3.42,22.13,0,36.36,2.54,10.58,8.6,18.15,19.02,18.15h12.29v-16.34c0-11.82,10.21-22.23,22.37-22.23h0s35.76,0,35.76,0c9.94,0,17.88-8.2,17.88-18.18v-34.12c0-9.71-8.17-16.97-17.88-18.62Zm-38,23.17c-3.72,0-6.73-3.05-6.73-6.8.03-3.78,3.01-6.83,6.73-6.83s6.73,3.08,6.73,6.83-3.01,6.8-6.73,6.8Z"/>
      </g>
    </g>
  </g>
</svg>