<?xml version="1.0" encoding="UTF-8"?>
<svg id="Layer_2" data-name="Layer 2" xmlns="http://www.w3.org/2000/svg" viewBox="0 0 250 250">
  <defs>
    <style>
      .cls-1 {
        fill: #fff;
      }

      .cls-2 {
        fill: #61dafb;
      }
    </style>
  </defs>
  <g id="Layer_1-2" data-name="Layer 1">
    <g>
      <circle class="cls-1" cx="125" cy="125" r="125"/>
      <path class="cls-2" d="m179.31,98.61c-1.81-.6-3.62-1.17-5.42-1.71.3-1.24.57-2.48.84-3.72,4.12-19.95,1.41-35.99-7.73-41.28-8.81-5.06-23.17.2-37.7,12.86-1.44,1.24-2.85,2.54-4.19,3.85-.9-.87-1.84-1.74-2.78-2.58-15.23-13.53-30.5-19.22-39.64-13.89-8.77,5.09-11.38,20.19-7.7,39.07.37,1.87.77,3.72,1.24,5.59-2.14.6-4.25,1.27-6.23,1.98-17.88,6.19-30.7,15.97-30.7,26.08s13.66,20.93,32.24,27.29c1.51.5,3.01,1,4.55,1.44-.5,2.01-.94,3.98-1.34,6.03-3.52,18.58-.77,33.31,8,38.37,9.04,5.22,24.24-.13,39.04-13.09,1.17-1.04,2.34-2.11,3.52-3.25,1.47,1.44,3.01,2.81,4.55,4.15,14.33,12.32,28.49,17.31,37.23,12.25,9.04-5.22,11.99-21.06,8.17-40.34-.3-1.47-.64-2.98-1-4.52,1.07-.3,2.11-.64,3.15-.97,19.32-6.39,33.31-16.74,33.31-27.35s-13.19-19.99-31.4-26.25h0Zm-45.3-28.42c12.45-10.85,24.07-15.1,29.36-12.05,5.66,3.25,7.83,16.37,4.29,33.61-.23,1.14-.47,2.24-.77,3.35-7.43-1.67-14.97-2.88-22.53-3.55-4.35-6.23-9.11-12.19-14.26-17.78,1.31-1.24,2.58-2.41,3.92-3.58Zm-38.74,72.05c1.71,2.91,3.45,5.83,5.29,8.67-5.22-.57-10.41-1.41-15.53-2.51,1.47-4.82,3.31-9.81,5.46-14.9,1.54,2.95,3.11,5.86,4.79,8.74h0Zm-10.14-40.28c4.82-1.07,9.94-1.94,15.27-2.61-1.77,2.78-3.52,5.62-5.16,8.5-1.64,2.85-3.25,5.76-4.75,8.7-2.11-4.99-3.88-9.88-5.36-14.6h0Zm9.17,23.07c2.21-4.62,4.62-9.14,7.16-13.59s5.29-8.77,8.17-13.02c5.02-.37,10.14-.57,15.37-.57s10.38.2,15.37.57c2.85,4.22,5.56,8.54,8.14,12.96,2.58,4.42,4.99,8.94,7.27,13.53-2.24,4.62-4.65,9.17-7.23,13.66-2.54,4.45-5.26,8.77-8.1,13.06-4.99.37-10.18.54-15.43.54s-10.35-.17-15.27-.47c-2.91-4.25-5.66-8.6-8.24-13.06-2.58-4.45-4.96-8.97-7.2-13.59h0Zm60.47,17.14c1.71-2.95,3.31-5.93,4.89-8.94,2.14,4.85,4.02,9.78,5.66,14.83-5.19,1.17-10.45,2.08-15.74,2.68,1.81-2.81,3.52-5.69,5.19-8.57h0Zm4.82-25.61c-1.57-2.95-3.18-5.89-4.85-8.77-1.64-2.85-3.35-5.66-5.12-8.44,5.39.67,10.55,1.57,15.37,2.68-1.54,4.96-3.35,9.78-5.39,14.53Zm-34.52-37.67c3.52,3.82,6.83,7.83,9.91,11.99-6.63-.3-13.29-.3-19.92,0,3.28-4.32,6.66-8.34,10.01-11.99Zm-38.84-20.52c5.62-3.28,18.11,1.41,31.27,13.06.84.74,1.67,1.54,2.54,2.34-5.19,5.59-9.98,11.55-14.36,17.78-7.57.67-15.07,1.84-22.5,3.48-.44-1.71-.8-3.45-1.17-5.19-3.15-16.2-1.07-28.42,4.22-31.47h0Zm-8.2,88.25c-1.41-.4-2.78-.84-4.15-1.31-7.13-2.24-15.23-5.79-21.09-10.45-3.38-2.34-5.66-5.96-6.29-10.01,0-6.13,10.58-13.96,25.85-19.28,1.91-.67,3.85-1.27,5.79-1.84,2.28,7.27,5.02,14.4,8.2,21.29-3.21,7-5.99,14.23-8.3,21.59Zm39.04,32.81c-5.52,5.06-11.92,9.07-18.88,11.82-3.72,1.77-8,1.94-11.82.44-5.32-3.08-7.53-14.9-4.52-30.8.37-1.87.77-3.75,1.24-5.59,7.5,1.61,15.07,2.71,22.73,3.28,4.42,6.26,9.27,12.25,14.46,17.88-1.07,1.04-2.14,2.04-3.21,2.98h0Zm8.2-8.14c-3.41-3.68-6.83-7.77-10.14-12.15,3.21.13,6.53.2,9.88.2s6.83-.07,10.18-.23c-3.08,4.25-6.39,8.3-9.91,12.19Zm43.76,10.04c-.3,4.08-2.31,7.9-5.52,10.48-5.32,3.08-16.67-.94-28.93-11.45-1.41-1.21-2.81-2.51-4.25-3.85,5.12-5.66,9.84-11.65,14.13-17.95,7.67-.64,15.3-1.81,22.83-3.52.33,1.37.64,2.75.9,4.08,1.64,7.23,1.91,14.76.84,22.2h0Zm6.09-35.99c-.94.3-1.87.6-2.85.87-2.34-7.3-5.22-14.43-8.54-21.36,3.21-6.83,5.93-13.86,8.2-21.06,1.74.5,3.42,1.04,5.02,1.57,15.6,5.36,26.55,13.33,26.55,19.42,0,6.56-11.68,15.03-28.39,20.56Zm-50.12-5.02c8.47,0,15.33-6.86,15.33-15.33s-6.86-15.33-15.33-15.33-15.33,6.86-15.33,15.33,6.86,15.33,15.33,15.33h0Z"/>
    </g>
  </g>
</svg>