<?xml version="1.0" encoding="UTF-8"?>
<svg id="Layer_2" data-name="Layer 2" xmlns="http://www.w3.org/2000/svg" viewBox="0 0 250 250">
  <defs>
    <style>
      .cls-1 {
        fill: #fff;
      }

      .cls-2 {
        fill: #07b6d5;
      }
    </style>
  </defs>
  <g id="Layer_1-2" data-name="Layer 1">
    <g>
      <circle class="cls-1" cx="125" cy="125" r="125"/>
      <g>
        <path class="cls-2" d="m123.01,70.3c-32.07,1.02-41.6,23.93-43.79,36.34,2.85-4.6,11.82-14.69,25.02-14.69,15.39,0,27.11,17.18,34.26,22.54,8.69,6.51,26.14,15.12,49.05,8.14,18.27-5.56,26.74-24.96,28.6-34.16-8.84,12.01-22.24,19.23-38.82,10.72-11.42-5.86-19.96-29.99-54.31-28.89Z"/>
        <path class="cls-2" d="m77.64,124.81c-32.07,1.02-41.6,23.93-43.79,36.34,2.85-4.6,11.82-14.69,25.02-14.69,15.39,0,27.11,17.18,34.26,22.54,8.69,6.51,26.14,15.12,49.05,8.14,18.27-5.56,26.74-24.96,28.6-34.16-8.84,12.01-22.24,19.23-38.82,10.72-11.42-5.86-19.96-29.99-54.31-28.89Z"/>
      </g>
    </g>
  </g>
</svg>