<?xml version="1.0" encoding="UTF-8"?>
<svg id="Layer_2" data-name="Layer 2" xmlns="http://www.w3.org/2000/svg" xmlns:xlink="http://www.w3.org/1999/xlink" viewBox="0 0 250 250">
  <defs>
    <style>
      .cls-1 {
        fill: #fff;
      }

      .cls-2 {
        fill: #ff61f6;
      }

      .cls-3 {
        clip-path: url(#clippath);
      }

      .cls-4 {
        fill: none;
      }

      .cls-5 {
        fill: #470137;
      }
    </style>
    <clipPath id="clippath">
      <rect class="cls-4" x="48.08" y="50" width="153.85" height="150"/>
    </clipPath>
  </defs>
  <g id="Layer_1-2" data-name="Layer 1">
    <g>
      <circle class="cls-1" cx="125" cy="125" r="125"/>
      <g class="cls-3">
        <g id="Xd">
          <g id="Layer_2-2" data-name="Layer 2">
            <g id="Layer_1-3" data-name="Layer 1">
              <g id="Layer_2_2" data-name="Layer 2_2">
                <g id="Surfaces">
                  <g id="UI_UX_Surface" data-name="UI UX Surface">
                    <g id="Outline_no_shadow" data-name="Outline no shadow">
                      <path id="Vector" class="cls-5" d="m75.32,50h99.36c3.58,0,7.12.7,10.43,2.07,3.31,1.37,6.31,3.37,8.84,5.9,2.53,2.53,4.54,5.54,5.91,8.84,1.37,3.31,2.07,6.85,2.07,10.43v95.51c0,3.58-.7,7.12-2.07,10.43-1.37,3.31-3.37,6.31-5.91,8.84-2.53,2.53-5.54,4.54-8.84,5.91-3.31,1.37-6.85,2.07-10.43,2.07h-99.36c-3.58,0-7.12-.7-10.43-2.07-3.31-1.37-6.31-3.37-8.84-5.91-2.53-2.53-4.54-5.54-5.9-8.84-1.37-3.31-2.07-6.85-2.07-10.43v-95.51c0-3.58.7-7.12,2.07-10.43,1.37-3.31,3.37-6.31,5.9-8.84,2.53-2.53,5.54-4.54,8.84-5.9,3.31-1.37,6.85-2.07,10.43-2.07h0Z"/>
                    </g>
                  </g>
                </g>
                <g id="Outlined_Mnemonics_Logos" data-name="Outlined Mnemonics Logos">
                  <g id="Xd_2" data-name="Xd 2">
                    <path id="Vector_2" data-name="Vector 2" class="cls-2" d="m128.97,89.42l-19.23,31.73,20.51,33.65c.14.23.18.51.13.77-.06.26-.32.06-.71.13h-14.68c-1.03,0-1.73-.06-2.18-.71-1.35-2.69-2.76-5.32-4.1-8.01s-2.82-5.32-4.36-8.08-3.08-5.51-4.62-8.33h-.13c-1.35,2.76-2.82,5.51-4.29,8.27-1.47,2.76-2.95,5.51-4.36,8.21-1.41,2.69-2.95,5.45-4.42,8.08-.26.64-.77.71-1.47.71h-14.1c-.26,0-.45.13-.45-.19-.03-.12-.03-.24,0-.37.02-.12.07-.24.14-.34l19.94-32.69-19.42-32.88c-.19-.26-.26-.51-.13-.64.08-.09.18-.16.29-.21.11-.04.23-.06.35-.05h14.55c.3,0,.6.05.9.13.26.14.48.34.64.58,1.22,2.76,2.63,5.51,4.1,8.27,1.47,2.76,3.01,5.45,4.62,8.14,1.6,2.69,2.95,5.38,4.29,8.14h.13c1.35-2.82,2.76-5.58,4.17-8.27s2.88-5.38,4.36-8.08c1.47-2.69,2.88-5.45,4.29-8.08.05-.25.18-.48.38-.64.25-.14.55-.19.83-.13h13.53c.08-.02.15-.02.23,0,.08.01.15.04.21.08.07.04.12.1.17.16.04.06.08.14.09.21.06.06-.06.32-.19.45h0Z"/>
                    <path id="Vector_3" data-name="Vector 3" class="cls-2" d="m158.59,157.05c-4.75.08-9.46-.91-13.78-2.88-4.02-1.88-7.39-4.92-9.68-8.72-2.37-3.91-3.53-8.78-3.53-14.62-.06-4.74,1.15-9.42,3.53-13.53,2.43-4.18,5.96-7.61,10.19-9.94,4.49-2.5,9.87-3.72,16.22-3.72.45,0,.9.02,1.35.06.58.06,1.22.06,1.99.13v-20.26c0-.45.19-.71.64-.71h13.01c.14-.02.29.02.41.1.12.08.2.21.23.35v61.15c0,1.15.06,2.44.13,3.85.06,1.41.19,2.63.26,3.72.01.22-.04.43-.16.62s-.28.33-.49.41c-3.36,1.41-6.86,2.44-10.45,3.08-3.26.59-6.56.89-9.87.9h0Zm6.28-12.82v-28.21c-.57-.14-1.15-.24-1.73-.32-.71-.06-1.41-.13-2.12-.13-2.51-.03-5,.54-7.24,1.67-2.19,1.09-4.07,2.72-5.45,4.74-1.41,2.05-2.12,4.81-2.12,8.14-.06,2.25.31,4.49,1.09,6.6.62,1.71,1.6,3.26,2.88,4.55,1.24,1.18,2.73,2.06,4.36,2.56,1.72.56,3.51.84,5.32.83.96,0,1.86-.06,2.69-.13.78.06,1.57-.05,2.31-.32h0Z"/>
                  </g>
                </g>
              </g>
            </g>
          </g>
        </g>
      </g>
    </g>
  </g>
</svg>