<svg xmlns="http://www.w3.org/2000/svg" viewBox="0 0 19.5 19.23"><defs><style>.cls-1{fill:none;stroke:#0f172a;stroke-linecap:round;stroke-linejoin:round;stroke-width:1.5px;}</style></defs><g id="Layer_2" data-name="Layer 2"><g id="Layer_1-2" data-name="Layer 1"><path class="cls-1" d="M2.25,9.61a7.5,7.5,0,0,0,15,0m-15,0a7.5,7.5,0,0,1,15,0m-15,0H.75m16.5,0h1.5m-1.5,0H9.75M1.29,12.69l1.41-.51M16.8,7.05l1.41-.52M2.86,15.4l1.14-1M15.5,4.79l1.14-1M5.25,17.41,6,16.11m7.5-13,.75-1.3M8.19,18.48,8.45,17m2.6-14.77L11.31.75m0,17.73L11.05,17M8.45,2.23,8.19.75m6.06,16.66-.75-1.3M5.25,1.82l4.5,7.79m6.89,5.79-1.14-1M4,4.79l-1.14-1m15.35,8.86-1.41-.51M2.7,7.05,1.29,6.53M9.75,9.61,6,16.11"/></g></g></svg>