<svg xmlns="http://www.w3.org/2000/svg" viewBox="0 0 812.47 812.47"><defs><style>.cls-1{fill:#f1f1f2;}.cls-2{fill:#8127f7;}.cls-3{fill:#ffb200;}</style></defs><g id="Layer_2" data-name="Layer 2"><g id="Layer_1-2" data-name="Layer 1"><circle class="cls-1" cx="406.23" cy="406.23" r="406.23"/><path class="cls-2" d="M566.66,653.78a46,46,0,0,1-46.1,46.1,45,45,0,0,1-32.43-13.47l-73-73h0a92,92,0,0,1,130.15,0l8,8A45,45,0,0,1,566.66,653.78Z"/><path class="cls-3" d="M397.56,199.28h0a92.32,92.32,0,0,1-130.46-.1l-7.85-7.85a46.14,46.14,0,0,1,40.44-78.11c9.74,1.58,18.57,6.76,25.54,13.74Z"/><path class="cls-2" d="M566.66,158.69a45.83,45.83,0,0,1-13.46,32.64l-73,73-8.77,8.77-65.07,65.28L397.56,347l-59.37,59.36,59.37,59.37-65.08,65.07-92-92a46,46,0,0,1,0-65.07l92-91.8,8.57-8.77,65.28-65.07,8.57-8.78L487.22,127c7-7,15.8-12.16,25.54-13.74a46.4,46.4,0,0,1,40.44,12.83A45.83,45.83,0,0,1,566.66,158.69Z"/><path class="cls-3" d="M572,438.77l-92,92-8.57,8.77-73.84,73.85-73.24,73a45,45,0,0,1-32.43,13.47,45.46,45.46,0,0,1-32.64-13.47,46,46,0,0,1,0-65.07l73.23-73,8.78-8.77,65.07-65.07,8.57-8.77,59.36-59.37L414.9,347l65.27-65.07L572,373.7A46,46,0,0,1,572,438.77Z"/></g></g></svg>